<mxfile host="app.diagrams.net" agent="Mozilla/5.0 (Windows NT 10.0; Win64; x64) AppleWebKit/537.36 (KHTML, like Gecko) Chrome/140.0.0.0 Safari/537.36" version="28.2.5">
  <diagram name="Página-1" id="9ZSFSqTpKgPwLhmnzNid">
    <mxGraphModel dx="872" dy="511" grid="1" gridSize="10" guides="1" tooltips="1" connect="1" arrows="1" fold="1" page="1" pageScale="1" pageWidth="827" pageHeight="1169" math="0" shadow="0">
      <root>
        <mxCell id="0" />
        <mxCell id="1" parent="0" />
        <mxCell id="5wmZo-m2C_Y5KggY9xoz-2" value="Registrar Transação" style="swimlane;horizontal=0;whiteSpace=wrap;html=1;" parent="1" vertex="1">
          <mxGeometry x="150" y="110" width="510" height="275" as="geometry" />
        </mxCell>
        <mxCell id="5wmZo-m2C_Y5KggY9xoz-9" style="edgeStyle=orthogonalEdgeStyle;rounded=0;orthogonalLoop=1;jettySize=auto;html=1;entryX=0;entryY=0.5;entryDx=0;entryDy=0;" parent="5wmZo-m2C_Y5KggY9xoz-2" source="5wmZo-m2C_Y5KggY9xoz-3" edge="1">
          <mxGeometry relative="1" as="geometry">
            <mxPoint x="214.0000000000001" y="45" as="targetPoint" />
          </mxGeometry>
        </mxCell>
        <mxCell id="5wmZo-m2C_Y5KggY9xoz-3" value="" style="ellipse;html=1;shape=startState;fillColor=#000000;strokeColor=#ff0000;" parent="5wmZo-m2C_Y5KggY9xoz-2" vertex="1">
          <mxGeometry x="134" y="30" width="30" height="30" as="geometry" />
        </mxCell>
        <mxCell id="5wmZo-m2C_Y5KggY9xoz-11" value="" style="edgeStyle=orthogonalEdgeStyle;rounded=0;orthogonalLoop=1;jettySize=auto;html=1;" parent="5wmZo-m2C_Y5KggY9xoz-2" edge="1">
          <mxGeometry relative="1" as="geometry">
            <mxPoint x="294.0000000000001" y="45" as="sourcePoint" />
            <mxPoint x="334.0000000000001" y="45" as="targetPoint" />
          </mxGeometry>
        </mxCell>
        <mxCell id="5wmZo-m2C_Y5KggY9xoz-7" value="1. Cliente acessa o aplicativo" style="rounded=1;whiteSpace=wrap;html=1;arcSize=40;fontColor=#000000;fillColor=#ffffc0;strokeColor=#ff0000;" parent="5wmZo-m2C_Y5KggY9xoz-2" vertex="1">
          <mxGeometry x="212" y="16" width="80" height="60" as="geometry" />
        </mxCell>
        <mxCell id="5wmZo-m2C_Y5KggY9xoz-49" value="" style="edgeStyle=orthogonalEdgeStyle;rounded=0;orthogonalLoop=1;jettySize=auto;html=1;" parent="5wmZo-m2C_Y5KggY9xoz-2" source="5wmZo-m2C_Y5KggY9xoz-10" target="5wmZo-m2C_Y5KggY9xoz-12" edge="1">
          <mxGeometry relative="1" as="geometry" />
        </mxCell>
        <mxCell id="5wmZo-m2C_Y5KggY9xoz-10" value="2. Cliente acessa a página de registrar transação" style="whiteSpace=wrap;html=1;fillColor=#ffffc0;strokeColor=#ff0000;fontColor=#000000;rounded=1;arcSize=40;" parent="5wmZo-m2C_Y5KggY9xoz-2" vertex="1">
          <mxGeometry x="332" y="16" width="120" height="60" as="geometry" />
        </mxCell>
        <mxCell id="5wmZo-m2C_Y5KggY9xoz-48" style="edgeStyle=orthogonalEdgeStyle;rounded=0;orthogonalLoop=1;jettySize=auto;html=1;entryX=1;entryY=0.5;entryDx=0;entryDy=0;" parent="5wmZo-m2C_Y5KggY9xoz-2" source="5wmZo-m2C_Y5KggY9xoz-12" target="5wmZo-m2C_Y5KggY9xoz-18" edge="1">
          <mxGeometry relative="1" as="geometry" />
        </mxCell>
        <mxCell id="5wmZo-m2C_Y5KggY9xoz-12" value="3. Cliente define o valor da transação" style="whiteSpace=wrap;html=1;fillColor=#ffffc0;strokeColor=#ff0000;fontColor=#000000;rounded=1;arcSize=40;" parent="5wmZo-m2C_Y5KggY9xoz-2" vertex="1">
          <mxGeometry x="346.5" y="111" width="91" height="60" as="geometry" />
        </mxCell>
        <mxCell id="5wmZo-m2C_Y5KggY9xoz-18" value="4. Cliente define receita ou despesa" style="whiteSpace=wrap;html=1;fillColor=#ffffc0;strokeColor=#ff0000;fontColor=#000000;rounded=1;arcSize=40;" parent="5wmZo-m2C_Y5KggY9xoz-2" vertex="1">
          <mxGeometry x="223" y="111" width="91" height="60" as="geometry" />
        </mxCell>
        <mxCell id="5wmZo-m2C_Y5KggY9xoz-23" value="" style="edgeStyle=orthogonalEdgeStyle;rounded=0;orthogonalLoop=1;jettySize=auto;html=1;" parent="5wmZo-m2C_Y5KggY9xoz-2" edge="1">
          <mxGeometry relative="1" as="geometry">
            <mxPoint x="138.0000000000001" y="174.9999999999999" as="sourcePoint" />
            <mxPoint x="138.0000000000001" y="199.9999999999999" as="targetPoint" />
          </mxGeometry>
        </mxCell>
        <mxCell id="5wmZo-m2C_Y5KggY9xoz-20" value="5. Cliente define a categoria da transação" style="whiteSpace=wrap;html=1;fillColor=#ffffc0;strokeColor=#ff0000;fontColor=#000000;rounded=1;arcSize=40;" parent="5wmZo-m2C_Y5KggY9xoz-2" vertex="1">
          <mxGeometry x="84" y="111" width="110" height="60" as="geometry" />
        </mxCell>
        <mxCell id="5wmZo-m2C_Y5KggY9xoz-21" value="" style="edgeStyle=orthogonalEdgeStyle;rounded=0;orthogonalLoop=1;jettySize=auto;html=1;entryX=0.988;entryY=0.429;entryDx=0;entryDy=0;entryPerimeter=0;" parent="5wmZo-m2C_Y5KggY9xoz-2" source="5wmZo-m2C_Y5KggY9xoz-18" edge="1">
          <mxGeometry relative="1" as="geometry">
            <mxPoint x="191.68000000000006" y="140.74" as="targetPoint" />
          </mxGeometry>
        </mxCell>
        <mxCell id="5wmZo-m2C_Y5KggY9xoz-27" style="edgeStyle=orthogonalEdgeStyle;rounded=0;orthogonalLoop=1;jettySize=auto;html=1;entryX=0;entryY=0.5;entryDx=0;entryDy=0;" parent="5wmZo-m2C_Y5KggY9xoz-2" target="5wmZo-m2C_Y5KggY9xoz-26" edge="1">
          <mxGeometry relative="1" as="geometry">
            <mxPoint x="180.5000000000001" y="229.9999999999999" as="sourcePoint" />
          </mxGeometry>
        </mxCell>
        <mxCell id="5wmZo-m2C_Y5KggY9xoz-22" value="6. Cliente confirma a transação" style="whiteSpace=wrap;html=1;fillColor=#ffffc0;strokeColor=#ff0000;fontColor=#000000;rounded=1;arcSize=40;" parent="5wmZo-m2C_Y5KggY9xoz-2" vertex="1">
          <mxGeometry x="96.5" y="201" width="85" height="60" as="geometry" />
        </mxCell>
        <mxCell id="5wmZo-m2C_Y5KggY9xoz-26" value="" style="ellipse;html=1;shape=endState;fillColor=#000000;strokeColor=#ff0000;" parent="5wmZo-m2C_Y5KggY9xoz-2" vertex="1">
          <mxGeometry x="253.5" y="215" width="30" height="30" as="geometry" />
        </mxCell>
      </root>
    </mxGraphModel>
  </diagram>
</mxfile>
